<?xml version="1.0" encoding="UTF-8"?>
<svg width="17px" height="16px" viewBox="0 0 17 16" version="1.1" xmlns="http://www.w3.org/2000/svg" xmlns:xlink="http://www.w3.org/1999/xlink">
    <!-- Generator: Sketch 60.1 (88133) - https://sketch.com -->
    <title>linkedin</title>
    <desc>Created with Sketch.</desc>
    <g id="UI" stroke="none" stroke-width="1" fill="none" fill-rule="evenodd">
        <g id="TDP-Contact-Footer-UI" transform="translate(-635.000000, -733.000000)" fill="#FFFFFF">
            <g id="Social" transform="translate(560.000000, 733.000000)">
                <g id="linkedin" transform="translate(75.500000, 0.000000)">
                    <path d="M0.403574788,5.13049046 L3.52210724,5.13049046 L3.52210724,15.9989755 L0.403574788,15.9989755 L0.403574788,5.13049046 Z M1.88334901,3.77103342 L1.8607714,3.77103342 C0.731890875,3.77103342 -3.55271368e-15,2.94019721 -3.55271368e-15,1.88807786 C-3.55271368e-15,0.814444871 0.753527752,0 1.90498589,0 C3.05550329,0 3.76293509,0.812395953 3.7855127,1.88500448 C3.7855127,2.93712383 3.05550329,3.77103342 1.88334901,3.77103342 L1.88334901,3.77103342 Z M16,16 L12.4637817,16 L12.4637817,10.3746959 C12.4637817,8.90254834 11.9106303,7.89857856 10.6942615,7.89857856 C9.76387582,7.89857856 9.24647225,8.57574593 9.0056444,9.23037521 C8.91533396,9.46395185 8.92944497,9.79075426 8.92944497,10.1185811 L8.92944497,16 L5.4261524,16 C5.4261524,16 5.47130762,6.03611218 5.4261524,5.13049046 L8.92944497,5.13049046 L8.92944497,6.83621462 C9.1364064,6.0904085 10.2558796,5.02599565 12.042333,5.02599565 C14.2587018,5.02599565 16,6.59034447 16,9.95569215 L16,16 L16,16 Z" id="Shape"></path>
                </g>
            </g>
        </g>
    </g>
</svg>