<?xml version="1.0" encoding="UTF-8"?>
<svg width="16px" height="16px" viewBox="0 0 16 16" version="1.1" xmlns="http://www.w3.org/2000/svg" xmlns:xlink="http://www.w3.org/1999/xlink">
    <!-- Generator: Sketch 60.1 (88133) - https://sketch.com -->
    <title>Instagram</title>
    <desc>Created with Sketch.</desc>
    <g id="UI" stroke="none" stroke-width="1" fill="none" fill-rule="evenodd">
        <g id="TDP-Contact-Footer-UI" transform="translate(-711.000000, -733.000000)" fill="#FFFFFF" fill-rule="nonzero">
            <g id="Social" transform="translate(560.000000, 733.000000)">
                <path d="M163,0 C165.209139,0 167,1.790861 167,4 L167,12 C167,14.209139 165.209139,16 163,16 L155,16 C152.790861,16 151,14.209139 151,12 L151,4 C151,1.790861 152.790861,0 155,0 L163,0 Z M163,2 L155,2 C153.895431,2 153,2.8954305 153,4 L153,12 C153,13.1045695 153.895431,14 155,14 L163,14 C164.104569,14 165,13.1045695 165,12 L165,4 C165,2.8954305 164.104569,2 163,2 Z M159,4 C161.209139,4 163,5.790861 163,8 C163,10.209139 161.209139,12 159,12 C156.790861,12 155,10.209139 155,8 C155,5.790861 156.790861,4 159,4 Z M159,6 C157.895431,6 157,6.8954305 157,8 C157,9.1045695 157.895431,10 159,10 C160.104569,10 161,9.1045695 161,8 C161,6.8954305 160.104569,6 159,6 Z M163,3 C163.552285,3 164,3.44771525 164,4 C164,4.55228475 163.552285,5 163,5 C162.447715,5 162,4.55228475 162,4 C162,3.44771525 162.447715,3 163,3 Z" id="Instagram"></path>
            </g>
        </g>
    </g>
</svg>