<?xml version="1.0" encoding="UTF-8"?>
<svg width="16px" height="16px" viewBox="0 0 16 16" version="1.1" xmlns="http://www.w3.org/2000/svg" xmlns:xlink="http://www.w3.org/1999/xlink">
    <!-- Generator: Sketch 60.1 (88133) - https://sketch.com -->
    <title>Facebook</title>
    <desc>Created with Sketch.</desc>
    <g id="UI" stroke="none" stroke-width="1" fill="none" fill-rule="evenodd">
        <g id="TDP-Contact-Footer-UI" transform="translate(-560.000000, -733.000000)" fill="#FFFFFF">
            <g id="Social" transform="translate(560.000000, 733.000000)">
                <path d="M16,15.12 C16,15.6 15.6,16 15.12,16 L11.04,16 L11.04,9.8 L13.12,9.8 L13.43,7.39 L11.04,7.39 L11.04,5.85 C11.04,5.15 11.23,4.67 12.24,4.67 L13.52,4.67 L13.52,2.51 C13.3,2.48 12.54,2.41 11.66,2.41 C9.82,2.41 8.55,3.54 8.55,5.6 L8.55,7.38 L6.46,7.38 L6.46,9.8 L8.55,9.8 L8.55,16 L0.88,16 C0.4,16 0,15.6 0,15.12 L0,0.88 C0,0.4 0.4,0 0.88,0 L15.11,0 C15.6,0 16,0.4 16,0.88 L16,15.12 Z" id="Facebook"></path>
            </g>
        </g>
    </g>
</svg>