<?xml version="1.0" encoding="UTF-8"?>
<svg width="18px" height="12px" viewBox="0 0 18 12" version="1.1" xmlns="http://www.w3.org/2000/svg" xmlns:xlink="http://www.w3.org/1999/xlink">
    <!-- Generator: Sketch 60.1 (88133) - https://sketch.com -->
    <title>behance</title>
    <desc>Created with Sketch.</desc>
    <g id="UI" stroke="none" stroke-width="1" fill="none" fill-rule="evenodd">
        <g id="TDP-Contact-Footer-UI" transform="translate(-862.000000, -735.000000)" fill="#FFFFFF">
            <g id="Social" transform="translate(560.000000, 733.000000)">
                <g id="behance" transform="translate(302.000000, 2.000000)">
                    <path d="M8.25945132,1.24764129 C8.59822412,1.74647361 8.76867585,2.34058851 8.76867585,3.03446987 C8.76867585,3.74852872 8.59822412,4.32358711 8.25519003,4.75740308 C8.0613012,5.0006539 7.77899053,5.22372723 7.40506206,5.42438113 C7.97287936,5.64297057 8.400074,5.98710883 8.69090725,6.45791686 C8.97960986,6.92760392 9.1234285,7.50042036 9.1234285,8.17300327 C9.1234285,8.86576366 8.95936871,9.48902382 8.62805318,10.0382999 C8.41818449,10.4026156 8.15504964,10.7108828 7.84077928,10.9597384 C7.48602663,11.2455862 7.06841991,11.4406352 6.58476314,11.5471275 C6.10110638,11.6536198 5.57803265,11.7051845 5.01234599,11.7051845 L0,11.7051845 L0,0 L5.37562123,0 C6.73284308,0.0224194302 7.69269934,0.437178888 8.25945132,1.24764129 L8.25945132,1.24764129 Z M2.21800305,2.03344232 L2.21800305,4.61616067 L4.92285884,4.61616067 C5.40438496,4.61616067 5.79748924,4.51863615 6.10004105,4.32470808 C6.39939689,4.13190098 6.55173812,3.7888837 6.55173812,3.29789818 C6.55173812,2.75198505 6.35252267,2.3921532 5.95409176,2.21616067 C5.60999235,2.09509575 5.17214448,2.03344232 4.63948285,2.03344232 L2.21800305,2.03344232 L2.21800305,2.03344232 Z M2.21800305,6.55207847 L2.21800305,9.67286315 L4.91859754,9.67286315 C5.40118899,9.67286315 5.7772481,9.60448389 6.04570957,9.46772536 C6.53362762,9.21214386 6.77652133,8.72564222 6.77652133,8.00709949 C6.77652133,7.39617001 6.54215021,6.97916861 6.06914668,6.75049043 C5.80388118,6.62382064 5.43314868,6.55656235 4.95694918,6.55207847 L2.21800305,6.55207847 L2.21800305,6.55207847 Z M15.8488143,3.226156 C16.4240889,3.49631014 16.8970924,3.92340028 17.2688902,4.50630546 C17.6087284,5.02083139 17.8271196,5.61718823 17.9261947,6.29537599 C17.9837221,6.69332088 18.0082246,7.26613732 17.9975713,8.01382532 L12.0051279,8.01382532 C12.0402836,8.88257823 12.3247249,9.49126576 12.8659091,9.8398879 C13.195094,10.0573564 13.590329,10.1649696 14.0526793,10.1649696 C14.5405973,10.1649696 14.9400936,10.033816 15.2458413,9.7692667 C15.4141624,9.62578234 15.561177,9.42737039 15.6890158,9.17290986 L17.8846471,9.17290986 C17.8271196,9.68631481 17.5607888,10.2075666 17.0877853,10.7389071 C16.3516469,11.5796357 15.3193486,12 13.9940865,12 C12.8989342,12 11.9316206,11.645773 11.0974725,10.9350771 C10.2579978,10.2255021 9.84145638,9.06978048 9.84145638,7.47127511 C9.84145638,5.97029426 10.2185808,4.82129846 10.9728297,4.01980383 C11.7292092,3.22167212 12.7093066,2.82036432 13.9141872,2.82036432 C14.6300845,2.82036432 15.2756704,2.9548809 15.8488143,3.226156 L15.8488143,3.226156 Z M12.631538,5.18113031 C12.3279209,5.51069594 12.1361627,5.95796357 12.0583941,6.52069127 L15.7646538,6.52069127 C15.7263021,5.91985054 15.5334786,5.4647361 15.1925752,5.15310603 C14.8474104,4.84259692 14.4223464,4.68678188 13.9152526,4.68678188 C13.3644804,4.68678188 12.9351552,4.85156469 12.631538,5.18113031 L12.631538,5.18113031 Z M11.5022954,2.00317609 L16.2685517,2.00317609 L16.2685517,0.547034096 L11.5022954,0.547034096 L11.5022954,2.00317609 Z" id="Shape"></path>
                </g>
            </g>
        </g>
    </g>
</svg>